<svg width="48" height="48" viewBox="0 0 48 48" fill="none" xmlns="http://www.w3.org/2000/svg">
<path d="M44.0273 14.0422H33.5273L28.2773 7.29224H15.5273L10.2773 14.0422H5.02734C3.75234 14.0422 2.77734 15.0172 2.77734 16.2922V36.5422C2.77734 37.8172 3.75234 38.7922 5.02734 38.7922H44.0273C45.3023 38.7922 46.2773 37.8172 46.2773 36.5422V16.2922C46.2773 15.0172 45.3023 14.0422 44.0273 14.0422Z" fill="white" stroke="#404145" stroke-width="2" stroke-miterlimit="10"/>
<path d="M38.0273 11.7922V10.2922H43.2773V11.7922" stroke="#404145" stroke-width="2" stroke-miterlimit="10"/>
<path d="M22.2773 35.0422C28.0763 35.0422 32.7773 30.3412 32.7773 24.5422C32.7773 18.7432 28.0763 14.0422 22.2773 14.0422C16.4783 14.0422 11.7773 18.7432 11.7773 24.5422C11.7773 30.3412 16.4783 35.0422 22.2773 35.0422Z" fill="#D0F7E6" stroke="#404145" stroke-width="2" stroke-miterlimit="10"/>
<path d="M22.2773 32.0422C26.4196 32.0422 29.7773 28.6845 29.7773 24.5422C29.7773 20.4 26.4196 17.0422 22.2773 17.0422C18.1351 17.0422 14.7773 20.4 14.7773 24.5422C14.7773 28.6845 18.1351 32.0422 22.2773 32.0422Z" fill="white" stroke="#404145" stroke-width="2" stroke-miterlimit="10"/>
<path d="M18.0773 23.0422C18.6773 21.3172 20.3273 20.0422 22.3523 20.0422M18.3773 26.7922C18.0023 26.1172 17.7773 25.3672 17.7773 24.5422M5.77734 17.7922H10.2773" stroke="#404145" stroke-width="2" stroke-miterlimit="10"/>
<path d="M44.0273 38.7922H37.2773V14.0422H44.0273C45.3023 14.0422 46.2773 15.0172 46.2773 16.2922V36.5422C46.2773 37.7422 45.3023 38.7922 44.0273 38.7922Z" fill="#D0F7E6" stroke="#404145" stroke-width="2" stroke-miterlimit="10"/>
<path d="M32.0273 33.5422H33.5273" stroke="#404145" stroke-width="2" stroke-miterlimit="10"/>
</svg>
